<svg id="图层_1" data-name="图层 1" xmlns="http://www.w3.org/2000/svg" viewBox="0 0 800 800"><defs><style>.cls-1{fill:#4c9ad5;}</style></defs><title>Nuo Mi定稿</title><path class="cls-1" d="M660.65,375.63A15.34,15.34,0,0,0,645.31,391v78.6a15.35,15.35,0,0,0,30.69,0V391A15.34,15.34,0,0,0,660.65,375.63Z"/><path class="cls-1" d="M660.66,334c-8.61,0-15.58,6.16-15.58,14v.36a15.34,15.34,0,0,0,15.34,15.34h.23A15.34,15.34,0,0,0,676,348.4V348C676,340.19,669,334,660.66,334Z"/><path class="cls-1" d="M359.15,372.87c-28,0-51.57,17.63-58.29,42.73l1.13-1.13a19.69,19.69,0,0,1,27.82,0,18.86,18.86,0,0,1,2.3,2.78c4.57-11.45,15-18.71,27-18.71,16.28,0,29.53,13.16,29.53,32,0,18.46-13.25,31.19-29.53,31.19a28.94,28.94,0,0,1-28-20.94,18,18,0,0,1-1.32,1.45l-20.55,20.56c10.83,15.1,29.13,24.61,49.89,24.61,33.25,0,60.45-24.4,60.45-57.08S392.4,372.87,359.15,372.87Z"/><path class="cls-1" d="M575.24,334c-17.67,0-33.25,7.43-43,19.1-10-11.67-25.11-19.1-43-19.1-34.41,0-58.36,23.56-58.36,53.06v82.59a15.23,15.23,0,0,0,30.46,0v-83c0-14,10.93-25.25,27.9-25.25,16.74,0,27.67,11.24,27.67,25.25v83a15.23,15.23,0,0,0,15.23,15.23h.46a15.23,15.23,0,0,0,15.23-15.23v-83c0-14,10.47-25.25,27.44-25.25,16.74,0,27.9,11.24,27.9,25.25v83a15.23,15.23,0,0,0,15.23,15.23h.23a15.23,15.23,0,0,0,15.23-15.23V387.09C633.83,357.59,609.88,334,575.24,334Z"/><path class="cls-1" d="M209,399.94V387.3c0-15.07-5.81-28.65-16.27-38.2C182,339.34,167.16,334,150.42,334c-16.51,0-31.39,5.31-42.08,15.07-10.46,9.55-16.28,23.13-16.28,38.2v82.27a15.35,15.35,0,0,0,30.69,0V386.66c0-15.7,10.47-25.25,27.67-25.25,17.44,0,27.9,9.55,27.9,25.25v82.91a15.35,15.35,0,0,0,30.69,0v-6.93c-6.93-9.67-10.7-20.06-11-30.56C197.68,420.59,201.47,409.61,209,399.94Z"/><path class="cls-1" d="M324.05,419.05a15.36,15.36,0,0,0-21.71,0l-2.77,2.77L268,453.36c-8.55,8.56-21.61,7.8-31.15-1.73-14.3-14.31-5.59-26.3-1.24-30.66L270,386.66A15.35,15.35,0,1,0,248.25,365l-33.71,33.71a57.55,57.55,0,0,0-5.53,6.4c-12.22,16.43-12.79,36.7,0,55.39a72.68,72.68,0,0,0,8.67,10.37c23,23,53,23.29,72.65,3.63l16.06-16,17.66-17.66A15.35,15.35,0,0,0,324.05,419.05Z"/></svg>